# xmcd
#
# Track frame offsets: 
#        150
#        14476
#        35865
#        48659
#        66443
#        84057
#        107512
#        128258
#        140533
#        161467
#        179993
#
# Disc length: 2730 seconds
#
# Revision: 0
# Processed by: cddbd v1.5.2PL0 Copyright (c) Steve Scherf et al.
# Submitted via: ExactAudioCopy v0.95b4
#
DISCID=950aa80b
DTITLE=South Austin Jug Band - Strange Invitation
DYEAR=2008
DGENRE=Bluegrass
TTITLE0=Come To Me
TTITLE1=Fall So Fast
TTITLE2=Treak of Beandip Perkins
TTITLE3=Dive Bar
TTITLE4=Jack-Ass
TTITLE5=Chicago
TTITLE6=Neutral Ground
TTITLE7=Po' Boys in the Glovebox
TTITLE8=Wheatfield with Crows
TTITLE9=Avenue of the Americas
TTITLE10=Reprise
EXTD=
EXTT0=
EXTT1=
EXTT2=
EXTT3=
EXTT4=
EXTT5=
EXTT6=
EXTT7=
EXTT8=
EXTT9=
EXTT10=
PLAYORDER=
